<?xml version="1.0" encoding="UTF-8"?>
<!DOCTYPE svg PUBLIC "-//W3C//DTD SVG 1.1//EN" "http://www.w3.org/Graphics/SVG/1.1/DTD/svg11.dtd">
<svg xmlns="http://www.w3.org/2000/svg" version="1.1" width="100px" height="100px" style="shape-rendering:geometricPrecision; text-rendering:geometricPrecision; image-rendering:optimizeQuality; fill-rule:evenodd; clip-rule:evenodd" xmlns:xlink="http://www.w3.org/1999/xlink">
<g><path style="opacity:0.943" fill="#efeff0" d="M 90.5,14.5 C 91.6455,37.1238 91.8122,59.7905 91,82.5C 89.8333,86.3333 87.3333,88.8333 83.5,90C 60.1239,90.8128 36.7906,90.6462 13.5,89.5C 11.1644,87.9962 9.33105,85.9962 8,83.5C 7.33333,60.8333 7.33333,38.1667 8,15.5C 9.99044,11.5095 13.1571,9.0095 17.5,8C 38.5,7.33333 59.5,7.33333 80.5,8C 85.0164,8.4204 88.3498,10.5871 90.5,14.5 Z"/></g>
<g><path style="opacity:1" fill="#443e72" d="M 16.5,13.5 C 38.1692,13.3334 59.8359,13.5 81.5,14C 83.286,14.7845 84.786,15.9512 86,17.5C 86.6667,38.5 86.6667,59.5 86,80.5C 85.2155,82.286 84.0488,83.786 82.5,85C 60.5,85.6667 38.5,85.6667 16.5,85C 15.6667,84.1667 14.8333,83.3333 14,82.5C 12.3559,60.9221 12.0226,39.2554 13,17.5C 14.3756,16.2949 15.5423,14.9616 16.5,13.5 Z"/></g>
<g><path style="opacity:1" fill="#6fa0bc" d="M 83.5,75.5 C 60.8333,76.8333 38.1667,76.8333 15.5,75.5C 15.3334,56.4971 15.5001,37.4971 16,18.5C 16.5,18 17,17.5 17.5,17C 38.8333,16.3333 60.1667,16.3333 81.5,17C 82,17.5 82.5,18 83,18.5C 83.4999,37.4971 83.6666,56.4971 83.5,75.5 Z"/></g>
<g><path style="opacity:0.34" fill="#d0bcbc" d="M 90.5,14.5 C 91.7899,15.0577 92.6232,16.0577 93,17.5C 93.6667,40.1667 93.6667,62.8333 93,85.5C 90.8893,89.9439 87.3893,92.4439 82.5,93C 61.8333,93.6667 41.1667,93.6667 20.5,93C 17.5547,92.861 15.2214,91.6943 13.5,89.5C 36.7906,90.6462 60.1239,90.8128 83.5,90C 87.3333,88.8333 89.8333,86.3333 91,82.5C 91.8122,59.7905 91.6455,37.1238 90.5,14.5 Z"/></g>
<g><path style="opacity:1" fill="#434174" d="M 40.5,40.5 C 41.675,40.281 42.675,40.6143 43.5,41.5C 45.7737,45.7136 47.7737,50.0469 49.5,54.5C 47.7305,55.6265 46.3972,55.1265 45.5,53C 41.6106,51.9721 38.2773,52.8054 35.5,55.5C 35.7071,50.2107 37.3738,45.2107 40.5,40.5 Z"/></g>
<g><path style="opacity:1" fill="#423f72" d="M 51.5,40.5 C 52.5,40.5 53.5,40.5 54.5,40.5C 53.9743,45.4115 54.6409,50.0782 56.5,54.5C 54.9936,55.7472 53.4936,55.7472 52,54.5C 51.5008,49.8452 51.3342,45.1785 51.5,40.5 Z"/></g>
<g><path style="opacity:1" fill="#434073" d="M 59.5,41.5 C 61.1765,42.1834 61.8432,43.5168 61.5,45.5C 65.5,46.1667 65.5,46.8333 61.5,47.5C 61.5,49.1667 61.5,50.8333 61.5,52.5C 62.8333,52.5 64.1667,52.5 65.5,52.5C 65.5,53.5 65.5,54.5 65.5,55.5C 62.9556,55.8957 60.7889,55.229 59,53.5C 58.8528,50.8896 58.0194,48.5563 56.5,46.5C 57.9937,45.0953 58.9937,43.4287 59.5,41.5 Z"/></g>
<g><path style="opacity:1" fill="#6b96b4" d="M 41.5,44.5 C 42.9313,45.7804 43.5979,47.4471 43.5,49.5C 42.0222,49.762 40.6888,49.4287 39.5,48.5C 40.1799,47.1401 40.8466,45.8068 41.5,44.5 Z"/></g>
<g><path style="opacity:1" fill="#6f7bbf" d="M 15.5,75.5 C 38.1667,76.8333 60.8333,76.8333 83.5,75.5C 83.8957,78.0444 83.229,80.2111 81.5,82C 60.1667,82.6667 38.8333,82.6667 17.5,82C 15.771,80.2111 15.1043,78.0444 15.5,75.5 Z"/></g>
</svg>
