<?xml version="1.0" encoding="UTF-8"?>
<!DOCTYPE svg PUBLIC "-//W3C//DTD SVG 1.1//EN" "http://www.w3.org/Graphics/SVG/1.1/DTD/svg11.dtd">
<svg xmlns="http://www.w3.org/2000/svg" version="1.1" width="100px" height="100px" style="shape-rendering:geometricPrecision; text-rendering:geometricPrecision; image-rendering:optimizeQuality; fill-rule:evenodd; clip-rule:evenodd" xmlns:xlink="http://www.w3.org/1999/xlink">
<g><path style="opacity:0.991" fill="#f0f0f0" d="M 90.5,14.5 C 91.6455,37.1238 91.8122,59.7905 91,82.5C 89.8333,86.3333 87.3333,88.8333 83.5,90C 60.1239,90.8128 36.7906,90.6462 13.5,89.5C 11.1644,87.9962 9.33105,85.9962 8,83.5C 7.33333,60.8333 7.33333,38.1667 8,15.5C 9.12173,13.3762 10.6217,11.5429 12.5,10C 36.4122,8.35366 60.4122,8.02033 84.5,9C 86.9962,10.331 88.9962,12.1644 90.5,14.5 Z"/></g>
<g><path style="opacity:1" fill="#413a6f" d="M 16.5,13.5 C 38.1692,13.3334 59.8359,13.5 81.5,14C 83.286,14.7845 84.786,15.9512 86,17.5C 86.6667,38.5 86.6667,59.5 86,80.5C 85.5348,81.9308 84.7014,83.0975 83.5,84C 61.2551,85.6448 38.9218,85.9781 16.5,85C 15.6667,84.1667 14.8333,83.3333 14,82.5C 12.3559,60.9221 12.0226,39.2554 13,17.5C 14.3756,16.2949 15.5423,14.9616 16.5,13.5 Z"/></g>
<g><path style="opacity:0.334" fill="#020202" d="M 90.5,14.5 C 91.7899,15.0577 92.6232,16.0577 93,17.5C 93.6667,40.1667 93.6667,62.8333 93,85.5C 91.8783,87.6238 90.3783,89.4571 88.5,91C 64.5878,92.6463 40.5878,92.9797 16.5,92C 15.0577,91.6232 14.0577,90.7899 13.5,89.5C 36.7906,90.6462 60.1239,90.8128 83.5,90C 87.3333,88.8333 89.8333,86.3333 91,82.5C 91.8122,59.7905 91.6455,37.1238 90.5,14.5 Z"/></g>
<g><path style="opacity:1" fill="#99a1e5" d="M 83.5,75.5 C 60.8333,76.8333 38.1667,76.8333 15.5,75.5C 15.3334,56.4971 15.5001,37.4971 16,18.5C 16.5,18 17,17.5 17.5,17C 38.8333,16.3333 60.1667,16.3333 81.5,17C 82,17.5 82.5,18 83,18.5C 83.4999,37.4971 83.6666,56.4971 83.5,75.5 Z"/></g>
<g><path style="opacity:1" fill="#413a6f" d="M 43.5,35.5 C 44.8221,35.33 45.9887,35.6634 47,36.5C 47.4995,42.8246 47.6662,49.1579 47.5,55.5C 51.1667,55.5 54.8333,55.5 58.5,55.5C 58.5,56.8333 58.5,58.1667 58.5,59.5C 53.2384,59.8047 48.0717,59.4714 43,58.5C 42.2019,50.754 42.3686,43.0873 43.5,35.5 Z"/></g>
<g><path style="opacity:1" fill="#6f7bbf" d="M 15.5,75.5 C 38.1667,76.8333 60.8333,76.8333 83.5,75.5C 83.8957,78.0444 83.229,80.2111 81.5,82C 60.1667,82.6667 38.8333,82.6667 17.5,82C 15.771,80.2111 15.1043,78.0444 15.5,75.5 Z"/></g>
</svg>
