<?xml version="1.0" encoding="UTF-8"?>
<!DOCTYPE svg PUBLIC "-//W3C//DTD SVG 1.1//EN" "http://www.w3.org/Graphics/SVG/1.1/DTD/svg11.dtd">
<svg xmlns="http://www.w3.org/2000/svg" version="1.1" width="100px" height="100px" style="shape-rendering:geometricPrecision; text-rendering:geometricPrecision; image-rendering:optimizeQuality; fill-rule:evenodd; clip-rule:evenodd" xmlns:xlink="http://www.w3.org/1999/xlink">
<g><path style="opacity:0.971" fill="#ececed" d="M 82.5,46.5 C 83.3787,51.2417 81.712,54.7417 77.5,57C 61.5,68.3333 45.5,79.6667 29.5,91C 27.5273,91.4955 25.5273,91.6621 23.5,91.5C 21.8868,91.0557 20.7202,90.0557 20,88.5C 19.3333,62.5 19.3333,36.5 20,10.5C 23.3305,7.12018 27.1639,6.62018 31.5,9C 48.9231,21.0328 65.9231,33.5328 82.5,46.5 Z"/></g>
<g><path style="opacity:1" fill="#474275" d="M 25.5,12.5 C 43.3765,24.039 60.7099,36.3723 77.5,49.5C 60.8034,62.1884 43.8034,74.5217 26.5,86.5C 25.914,86.2907 25.414,85.9574 25,85.5C 24.1774,61.0943 24.3441,36.7609 25.5,12.5 Z"/></g>
<g><path style="opacity:1" fill="#6fbdfd" d="M 27.5,17.5 C 43.0067,27.4231 58.0067,38.0898 72.5,49.5C 58.1369,60.5216 43.4703,71.1883 28.5,81.5C 27.5003,60.1771 27.167,38.8437 27.5,17.5 Z"/></g>
<g><path style="opacity:0.269" fill="#080808" d="M 82.5,46.5 C 86.3383,50.4525 86.005,54.2859 81.5,58C 65.5,69.3333 49.5,80.6667 33.5,92C 29.8632,94.1451 26.5298,93.9784 23.5,91.5C 25.5273,91.6621 27.5273,91.4955 29.5,91C 45.5,79.6667 61.5,68.3333 77.5,57C 81.712,54.7417 83.3787,51.2417 82.5,46.5 Z"/></g>
</svg>
