<?xml version="1.0" encoding="UTF-8"?>
<!DOCTYPE svg PUBLIC "-//W3C//DTD SVG 1.1//EN" "http://www.w3.org/Graphics/SVG/1.1/DTD/svg11.dtd">
<svg xmlns="http://www.w3.org/2000/svg" version="1.1" width="100px" height="100px" style="shape-rendering:geometricPrecision; text-rendering:geometricPrecision; image-rendering:optimizeQuality; fill-rule:evenodd; clip-rule:evenodd" xmlns:xlink="http://www.w3.org/1999/xlink">
<g><path style="opacity:0.987" fill="#efeff0" d="M 96.5,28.5 C 97.6299,41.7882 97.7966,55.1215 97,68.5C 95.8333,72.3333 93.3333,74.8333 89.5,76C 61.4578,76.8163 33.4578,76.6497 5.5,75.5C 3.13942,73.8061 1.13942,71.8061 -0.5,69.5C -0.5,56.1667 -0.5,42.8333 -0.5,29.5C 1.30904,26.8607 3.64238,24.6941 6.5,23C 34.5,22.3333 62.5,22.3333 90.5,23C 93.0432,24.3819 95.0432,26.2152 96.5,28.5 Z"/></g>
<g><path style="opacity:1" fill="#423b70" d="M 8.5,27.5 C 34.8354,27.3334 61.1688,27.5 87.5,28C 89.286,28.7845 90.786,29.9512 92,31.5C 92.6667,43.5 92.6667,55.5 92,67.5C 90.786,69.0488 89.286,70.2155 87.5,71C 61.1667,71.6667 34.8333,71.6667 8.5,71C 7.33333,69.8333 6.16667,68.6667 5,67.5C 4.33333,55.5 4.33333,43.5 5,31.5C 6.37561,30.2949 7.54227,28.9616 8.5,27.5 Z"/></g>
<g><path style="opacity:0.331" fill="#040404" d="M 96.5,28.5 C 97.7281,29.3065 98.7281,30.3065 99.5,31.5C 99.5,44.8333 99.5,58.1667 99.5,71.5C 97.691,74.1393 95.3576,76.3059 92.5,78C 64.5,78.6667 36.5,78.6667 8.5,78C 7.05773,77.6232 6.05773,76.7899 5.5,75.5C 33.4578,76.6497 61.4578,76.8163 89.5,76C 93.3333,74.8333 95.8333,72.3333 97,68.5C 97.7966,55.1215 97.6299,41.7882 96.5,28.5 Z"/></g>
<g><path style="opacity:1" fill="#6fa0bc" d="M 89.5,61.5 C 62.1667,62.8333 34.8333,62.8333 7.5,61.5C 7.33353,51.8276 7.5002,42.1609 8,32.5C 8.5,32 9,31.5 9.5,31C 35.5,30.3333 61.5,30.3333 87.5,31C 88,31.5 88.5,32 89,32.5C 89.4998,42.1609 89.6665,51.8276 89.5,61.5 Z"/></g>
<g><path style="opacity:1" fill="#6f7bbf" d="M 7.5,61.5 C 34.8333,62.8333 62.1667,62.8333 89.5,61.5C 89.8957,64.0444 89.229,66.2111 87.5,68C 61.5,68.6667 35.5,68.6667 9.5,68C 7.77099,66.2111 7.10433,64.0444 7.5,61.5 Z"/></g>
</svg>
